<svg xmlns="http://www.w3.org/2000/svg" width="129.7pt" height="51.32" viewBox="0 0 129.7 38.49"><defs><clipPath id="a"><path d="M54 24h14v14.488H54zm0 0"/></clipPath><clipPath id="b"><path d="M45 22h12v16.488H45zm0 0"/></clipPath><clipPath id="c"><path d="M124 14h5.7v12H124zm0 0"/></clipPath></defs><path d="M41.223 25.89c.449-.25.914-.468 1.375-.69l.129.116c-.5.196-.997.399-1.504.575" fill-rule="evenodd" fill="#b6b3ae"/><g clip-path="url(#a)"><path d="M57.328 24.73c.234-.046.457-.14.7-.168.14.157.199.364.288.551 1.32 2.7 2.645 5.399 3.961 8.098.114.234.215.473.356.691-.137-.476-.344-.93-.512-1.394-.566-1.465-1.129-2.934-1.703-4.395-.14-.39-.32-.77-.434-1.172.371.094.727.235 1.086.356 1.492.515 2.98 1.031 4.473 1.531.144.035.195.18.254.3.355.845.742 1.673 1.125 2.5.082.18.172.376.113.575-.097.356-.23.7-.355 1.047-.39 1.113-.77 2.23-1.164 3.344-.102.281-.172.582-.352.828a1.731 1.731 0 01-.816.617c-.391.152-.836.113-1.227-.039-1.504-.598-3-1.219-4.5-1.832-.129-.055-.273-.105-.363-.223-.094-.129-.153-.28-.219-.422-1.246-2.789-2.516-5.562-3.77-8.347-.097-.246-.308-.508-.195-.785.16-.399.332-.793.492-1.192.07-.16.118-.332.22-.476.519.066 1.038.187 1.566.14.328-.031.656-.054.976-.133" fill-rule="evenodd" fill="#d7de36"/></g><path d="M69.55 24.3c.653.25 1.282.563 1.923.845a23.52 23.52 0 01-1.637-.532c.07-.011.137-.027.203-.039a2.998 2.998 0 01-.488-.273" fill-rule="evenodd" fill="#b6b3ae"/><g clip-path="url(#b)"><path d="M49.457 22.945c.61-.277 1.238-.52 1.855-.78a5.794 5.794 0 002.418 2.179c-1.054 3.105-2.128 6.207-3.195 9.312-.086.282-.2.559-.27.844 1.07-2.355 2.09-4.734 3.153-7.094.871 1.766 1.73 3.535 2.598 5.301a.246.246 0 01.007.223c-.363.968-.73 1.933-1.097 2.902-.082.29-.403.371-.64.492-1.403.672-2.798 1.356-4.2 2.031-.246.133-.527.141-.8.133-.641.02-1.224-.437-1.458-1.011-.637-1.493-1.254-2.989-1.89-4.48-.063-.15-.133-.31-.094-.47.054-.226.156-.437.234-.652.719-1.914 1.445-3.824 2.164-5.738.41-1.063.793-2.133 1.215-3.192" fill-rule="evenodd" fill="#47b552"/></g><path d="M69.48 19.398c.2-.117.422-.003.618.063.879.332 1.75.676 2.632.996.188.059.274.25.356.41.695 1.457 1.402 2.91 2.11 4.363.105.239.183.497.199.758-.02.45-.192.91-.532 1.219-.293.273-.672.426-1.043.57-1.273.532-2.543 1.067-3.816 1.602-.16.062-.317.16-.492.18-.235-.028-.45-.145-.672-.223-1.656-.594-3.29-1.242-4.934-1.86-.476-.203-.972-.34-1.449-.538-.828-.333-1.672-.63-2.504-.946-.187-.066-.242-.27-.312-.43-.2-.503-.43-.992-.61-1.5.313-.222.637-.437.91-.707.387-.378.762-.78 1.016-1.265a3.9 3.9 0 01.273-.438c.5.153.98.352 1.48.504 1.145.387 2.282.797 3.427 1.172 1.23.442 2.472.84 3.699 1.285.539.196 1.082.38 1.637.532-.641-.282-1.266-.598-1.922-.844-.942-.414-1.875-.848-2.824-1.238-.504-.239-1.016-.458-1.524-.684-.3-.129-.605-.258-.883-.43.977-.531 1.989-.992 2.989-1.472.714-.38 1.453-.711 2.171-1.079" fill-rule="evenodd" fill="#ffd64c"/><path d="M48.691 17.188c.102-.063.22-.012.32.03.551.239 1.106.462 1.66.688-.245 1.074-.202 2.219.177 3.262-1.778.883-3.57 1.738-5.348 2.621-.969.465-1.93.945-2.902 1.41-.461.223-.926.442-1.375.692.507-.176 1.004-.38 1.504-.575 1.91-.738 3.812-1.484 5.722-2.21-.613 1.851-1.27 3.695-1.89 5.546-.024.114-.114.188-.215.227-.93.422-1.86.84-2.79 1.262-.156.082-.335.062-.495.004-1.54-.543-3.079-1.07-4.618-1.61-.32-.11-.625-.285-.836-.558-.375-.457-.464-1.114-.253-1.665.62-1.53 1.25-3.066 1.87-4.601.063-.152.15-.316.31-.379 3.054-1.383 6.109-2.758 9.16-4.145" fill-rule="evenodd" fill="#00aff0"/><path d="M55.68 15.3a3.986 3.986 0 012.535.575 3.936 3.936 0 011.586 1.867c.332.797.383 1.695.172 2.528a3.937 3.937 0 01-1.504 2.203c-1.25.933-3.063 1.027-4.39.203a3.903 3.903 0 01-1.552-1.707 3.971 3.971 0 011.102-4.817 4.053 4.053 0 012.05-.851" fill-rule="evenodd" fill="#b6b3ae"/><path d="M42.328 9.102c.18-.07.375-.157.567-.098.335.09.652.238.984.355 2.687 1.016 5.375 2.04 8.066 3.043.157.059.317.102.457.196.102.09.137.23.192.351.187.512.449.992.597 1.516-.261.187-.535.36-.77.582-.362.348-.722.703-.991 1.129-.145.21-.235.453-.39.656-.18.008-.349-.07-.517-.125a491.54 491.54 0 00-4.238-1.457c-.543-.207-1.105-.352-1.648-.57-.688-.235-1.375-.477-2.067-.707-.527-.184-1.05-.38-1.59-.532.352.184.715.348 1.079.5 1.566.692 3.129 1.391 4.699 2.075.394.187.808.34 1.195.539-.742.41-1.52.746-2.277 1.133-.969.453-1.922.945-2.887 1.414a.507.507 0 01-.437.03c-.797-.308-1.594-.609-2.395-.91-.277-.105-.621-.179-.754-.48-.644-1.347-1.3-2.687-1.953-4.031-.156-.324-.34-.649-.379-1.012-.062-.52.14-1.058.527-1.41.27-.25.63-.375.965-.52.516-.199 1.02-.433 1.532-.64.808-.352 1.628-.672 2.433-1.027" fill-rule="evenodd" fill="#8bd6f6"/><path d="M68.688 8.379c.164-.086.351-.047.519.012 1.465.511 2.938 1.02 4.406 1.527.29.102.582.219.817.418.52.445.715 1.226.453 1.863-.61 1.528-1.246 3.043-1.856 4.57-.074.192-.203.368-.402.45-.832.394-1.676.754-2.516 1.136-2.164.993-4.336 1.961-6.504 2.946-.175.078-.359.008-.52-.067-.495-.218-1.003-.402-1.5-.625.056-.43.157-.855.138-1.289.023-.672-.118-1.336-.317-1.972a822.333 822.333 0 015.274-2.575c1.43-.714 2.879-1.394 4.3-2.125-.855.293-1.69.653-2.543.965-1.183.469-2.374.914-3.558 1.38-.356.136-.703.288-1.067.398.141-.524.333-1.028.512-1.54.438-1.316.906-2.624 1.344-3.94.035-.102.074-.216.184-.25.945-.427 1.894-.848 2.835-1.282" fill-rule="evenodd" fill="#f9a94a"/><path d="M46.89 1.46A1.675 1.675 0 0148.548.39c.348.016.668.172.984.301 1.278.52 2.555 1.04 3.828 1.563.2.086.43.137.594.293.145.183.211.414.313.625 1.257 2.777 2.511 5.558 3.773 8.336.059.148.148.285.176.445-.02.113-.07.215-.113.32-.22.508-.414 1.032-.645 1.536a5.63 5.63 0 00-3.242.171c-.602-1.195-1.176-2.406-1.766-3.605a2400.11 2400.11 0 01-2.691-5.512c-.074-.144-.145-.289-.235-.426a4.5 4.5 0 00.184.532c.816 2.097 1.621 4.199 2.441 6.297.036.101.07.207.102.312-1.828-.601-3.64-1.25-5.465-1.867-.12-.031-.238-.09-.277-.215-.414-.918-.828-1.836-1.25-2.754a.641.641 0 01-.028-.515c.56-1.586 1.102-3.18 1.66-4.766" fill-rule="evenodd" fill="#ef62a4"/><path d="M62.656 0h.489c.277.086.554.2.78.383.255.203.419.492.544.789.617 1.476 1.238 2.95 1.863 4.422a.7.7 0 01.02.547 7918.08 7918.08 0 00-3.29 8.718c-.078.204-.136.414-.238.61-.09.168-.289.219-.445.293-.492.183-.969.406-1.461.59-.461-.743-1.074-1.395-1.824-1.848-.188-.113-.395-.191-.559-.34.035-.309.184-.59.274-.887.77-2.242 1.543-4.484 2.312-6.726.285-.852.598-1.696.863-2.551-.308.625-.574 1.273-.859 1.91-.77 1.727-1.516 3.457-2.297 5.176-.277-.469-.492-.977-.738-1.465-.606-1.223-1.195-2.453-1.805-3.676a.555.555 0 01-.02-.496c.348-.906.692-1.816 1.032-2.726.074-.227.281-.36.484-.453A247.488 247.488 0 0061.477.484c.382-.18.761-.386 1.18-.484" fill-rule="evenodd" fill="#f18ab9"/><path d="M5.645 21.375c-.204-.043-.73-.152-1.864-.152-1.41 0-2.011.402-2.011 1.316 0 .762.48 1.242 2.183 1.242.945 0 1.504-.093 1.692-.14zm1.75 3.441c-.418.079-1.829.25-3.442.25C.73 25.066 0 23.856 0 22.555c0-1.688.977-2.575 3.723-2.575.789 0 1.547.063 1.906.11 0-1.457-.977-1.813-2.371-1.813-1.18 0-1.895.356-2.125.543-.125-.11-.422-.402-.422-.824 0-.586.547-1.144 2.574-1.144 2.422 0 4.11.882 4.11 3.3m2.011 2.758c.281.203 1.535.777 3.164.777 1.07 0 1.828-.25 1.828-.93 0-.573-.37-.855-1.488-.976l-1.207-.14c-1.66-.172-2.824-.82-2.824-2.34 0-1.32.976-2.453 3.535-2.453 2.156 0 3.395.53 3.395 1.289 0 .465-.418.789-.543.836-.168-.168-1.114-.79-2.836-.79-1.192 0-1.797.31-1.797.946 0 .543.465.789 1.316.898l1.582.203c1.723.23 2.711.899 2.711 2.278 0 1.55-1.27 2.558-3.578 2.558-2.219 0-3.691-.757-3.926-.96m14.231-2.731c-.2-.043-.727-.152-1.86-.152-1.41 0-2.015.402-2.015 1.316 0 .762.48 1.242 2.187 1.242.946 0 1.504-.093 1.688-.14zm1.754 3.441c-.422.079-1.828.25-3.442.25-3.226 0-3.953-1.21-3.953-2.511 0-1.688.977-2.575 3.719-2.575.793 0 1.55.063 1.906.11 0-1.457-.976-1.813-2.371-1.813-1.176 0-1.89.356-2.125.543-.121-.11-.418-.402-.418-.824 0-.586.543-1.144 2.574-1.144 2.418 0 4.11.882 4.11 3.3m1.808 0c0-2.062 1.614-3.3 3.785-3.3 2.2 0 3.782 1.238 3.782 3.3v4.696h-1.77v-4.246c0-1.41-.695-2.157-2.012-2.157-1.351 0-2.015.746-2.015 2.157v4.246h-1.77m51.625 0c.203-.293 1.66-2.075 3.102-3.766-1.938-2.11-2.727-2.621-2.727-3.332 0-.355.246-.684.864-.684.375 0 .699.125.777.172.156.2 1.27 1.504 2.215 2.528.777-.993 1.675-2 1.8-2.172.325-.356.637-.528 1.086-.528.57 0 1.02.329 1.13.465-.34.371-1.579 1.848-2.915 3.426 1.473 1.723 3.008 3.426 3.352 3.89h-2.188c-.48-.558-1.226-1.44-2.28-2.617-.93 1.118-1.767 2.122-2.138 2.618m7.688-6.958c0-.574.34-.824.945-.824.371 0 .711.125.82.172v7.61h-1.765zm1.953-3.242c0 .606-.465 1.07-1.07 1.07-.606 0-1.07-.464-1.07-1.07 0-.605.464-1.07 1.07-1.07.605 0 1.07.465 1.07 1.07M95.5 18.43c-1.426 0-2.387 1.086-2.387 2.527 0 1.426.961 2.512 2.387 2.512 1.41 0 2.387-1.024 2.387-2.512 0-1.426-.977-2.527-2.387-2.527m2.387-4.184c0-.559.328-.82.93-.82.37 0 .714.12.824.168v6.992c0 3.008-1.786 4.48-4.172 4.48-2.418 0-4.2-1.734-4.2-4.109 0-2.402 1.704-4.11 3.965-4.11 1.196 0 2.141.532 2.653 1.196m3.379 1.801c0-1.969 1.488-2.992 3.41-2.992 1.285 0 2.324.48 2.93 1.41.605-.93 1.624-1.41 2.882-1.41 1.907 0 3.38.992 3.38 2.972v5.024h-1.766V20.43c0-1.426-.684-1.985-1.786-1.985-1.05 0-1.859.637-1.859 2.172v4.23h-1.766v-4.23c0-1.535-.808-2.172-1.863-2.172-1.066 0-1.797.575-1.797 2v4.403h-1.765m18.425-3.688c-2.293 0-2.68.621-2.68 1.223 0 .793.712 1.117 1.641 1.117 1.52 0 2.328-1.133 2.371-2.324-.476-.016-.894-.016-1.332-.016m-3.144-2.015c-.25-.188-.606-.56-.606-.977 0-.605.758-1.32 2.805-1.32 2.297 0 4.156 1.816 4.156 4.047 0 2.343-1.8 4.171-4.218 4.171-2.153 0-3.332-1.18-3.332-2.574 0-1.426.945-2.418 4.496-2.418.418 0 .668.016 1.086.031-.125-.789-.977-1.812-2.528-1.765-1.023 0-1.504.45-1.86.805" fill="#606062"/><g clip-path="url(#c)"><path d="M124.434 15.688c0-.575.355-.82.93-.82.37 0 .73.124.84.167v2.031h2.245c.684 0 .93.282.93.825 0 .355-.14.68-.203.804h-2.973v3.457c0 1.055.633 1.348 1.395 1.348.605 0 1.16-.23 1.394-.402l.711 1.175c-.34.25-1.223.793-2.512.793-1.812 0-2.757-1.023-2.757-2.558" fill="#606062"/></g></svg>