<svg version="1.0" xmlns="http://www.w3.org/2000/svg" width="96" height="96" viewBox="0 0 72 72"><path d="M43.2 2.2c-3 1.3-4.8 3-5.7 5.1-1.1 2.7-1 3.6.8 7.4 2.3 4.8 3.3 5.3 4.2 2.2.4-1.1.9-1.9 1.1-1.6.2.2-.3 2.5-1.2 5.1-1.5 4.4-1.5 4.8.1 6.6 3.4 3.8 5.1 2.6 8.6-6.3 1.8-4.5 3.2-9 3.1-9.9C54.1 7.7 50.1 0 48.8.1c-.7 0-3.2 1-5.6 2.1zM18.4 6.4c-2.3 7.4-1.1 10.5 5.3 12.8 2.6.9 4.9 1.6 5.1 1.4.2-.2-.4-2-1.2-4-.8-2-1.2-3.5-.8-3.2.5.3 1.9 3 3.2 6 2.1 5.2 2.6 5.6 5.6 5.6 2 0 3.4-.6 3.8-1.6.3-.8-1.1-5.4-3.1-10.1-3.5-7.9-4.1-8.7-8.1-10.4-6.9-3-7.9-2.6-9.8 3.5zm37.7 10c-2.5 1.4-6.2 9.2-5.4 11.3.3.7-.7 1.8-2.1 2.4-2 1-2.6 1.9-2.6 4.5 0 5.5 1.8 5.3 15.2-1.1 5.2-2.4 5.8-3.1 7.3-7.6.9-2.7 1.5-5.5 1.2-6.2-.3-.7-2.4-1.9-4.7-2.6-2.3-.7-4.7-1.4-5.4-1.6-.6-.3-2.2.2-3.5.9zM55 27c-.8.5-1.9 1-2.5 1-.5 0-.3-.5.5-1s2-1 2.5-1c.6 0 .3.5-.5 1z"/><path d="M7.1 18.5c-2.7 1.3-5.1 2.9-5.3 3.6-.8 2.5 3.9 10.5 7 11.8 2.6 1.1 3.6 1 7.8-1.2l4.8-2.4-3-1.7c-2.6-1.5-2.7-1.6-.4-1 1.4.3 3.9 1.2 5.6 1.9 2.8 1.1 3.2 1 5.2-1.2 3.2-3.6 1.8-5.1-8.1-8.8l-8.6-3.3-5 2.3zm24 12.1c-2.7 3.5-2.7 6.5.2 9.2 4.6 4.4 11.7 1.7 11.7-4.4 0-6.9-7.8-10.1-11.9-4.8z"/><path d="M14.1 35.3C6.4 39.2 5.6 39.9 4 43.9c-.9 2.5-1.5 5.2-1.3 6.1.6 2.3 9.8 5.1 12.8 4 2.7-1 3.5-2.1 5.2-7 1.7-4.7 1.6-5.2-.6-4-1.1.5-2.3 1-2.8 1-.4 0 1.5-1.3 4.2-2.8 4.5-2.4 5-3 4.6-5.7-.3-2.7-1.6-4.6-3.1-4.4-.3 0-4.3 1.9-8.9 4.2zm42.2 2c-4.8 2.3-5.3 3.3-2.2 4.2 1.1.4 1.9.9 1.6 1.1-.2.2-2.5-.4-5-1.3-4.6-1.7-4.8-1.7-6.8.4-3.5 3.5-1.8 5.5 7.8 9l8.8 3.2 5.2-2.4c2.9-1.3 5.3-2.8 5.3-3.2 0-2.1-4.7-11.2-6-11.6-.8-.3-2.2-.7-3-1-.8-.3-3.4.4-5.7 1.6zm-33.8 9c-4.7 10.7-5 12.8-2.5 18.5 1.2 2.9 2.9 5.2 3.6 5.2.7 0 3.4-1 5.9-2.2 6.1-3 7.4-6.6 4.4-12.8-2-4.1-2.2-4.3-3.5-2.5-1.7 2.3-1.7 2.1 0-3.6 1.3-4.3 1.3-4.7-.5-6.3-3.2-2.7-4.9-1.9-7.4 3.7z"/><path d="M33.7 45.7c-1.4 1.3-.6 4.3 2.9 12.1 3.3 7.4 3.9 8.1 8 9.7 6.1 2.3 7.6 1.7 9.6-3.8 2.4-6.5.8-10.7-4.8-12.6-2.2-.7-4.5-1.5-5.2-1.8-1.1-.4-1.2-.1-.2 1.7.6 1.2.9 2.4.6 2.7-.3.4-1.5-1.5-2.6-4-1.8-4-2.5-4.7-4.9-4.7-1.5 0-3.1.3-3.4.7zm12.7 10.9c.3.8.2 1.2-.4.9-.6-.3-1-1-1-1.6 0-1.4.7-1.1 1.4.7z"/></svg>